<?xml version="1.0" standalone="no"?>
<!DOCTYPE svg PUBLIC "-//W3C//DTD SVG 20010904//EN"
 "http://www.w3.org/TR/2001/REC-SVG-20010904/DTD/svg10.dtd">
<svg version="1.0" xmlns="http://www.w3.org/2000/svg"
 width="700.000000pt" height="700.000000pt" viewBox="0 0 700.000000 700.000000"
 preserveAspectRatio="xMidYMid meet">
<metadata>
Created by potrace 1.14, written by Peter Selinger 2001-2017
</metadata>
<g transform="translate(0.000000,700.000000) scale(0.100000,-0.100000)"
fill="#000000" stroke="none">
<path d="M4415 4722 c-23 -11 -52 -32 -66 -49 -13 -16 -244 -507 -512 -1090
-467 -1018 -487 -1064 -487 -1120 0 -72 28 -125 88 -167 84 -59 216 -42 277
38 13 17 241 504 506 1081 437 950 483 1056 487 1110 5 75 -25 136 -86 180
-55 38 -146 46 -207 17z"/>
<path d="M1880 4167 c-594 -329 -916 -516 -951 -551 -91 -93 -91 -260 0 -352
37 -37 249 -160 906 -526 149 -83 188 -93 235 -61 35 24 48 41 77 103 21 43
27 70 27 130 1 96 -22 158 -74 202 -21 18 -156 98 -299 178 -143 80 -261 147
-261 150 0 3 118 70 261 150 143 80 278 160 299 178 113 95 96 348 -30 435
-43 30 -87 21 -190 -36z"/>
<path d="M4906 4178 c-53 -56 -76 -119 -76 -211 0 -91 16 -143 60 -187 20 -21
145 -98 303 -185 147 -83 267 -152 267 -156 0 -3 -120 -72 -267 -154 -160 -89
-282 -164 -303 -185 -44 -44 -60 -96 -60 -187 0 -92 23 -155 76 -211 72 -75
60 -79 624 238 267 150 500 284 518 298 18 14 45 46 60 71 24 40 27 57 27 131
0 74 -3 91 -27 131 -15 25 -42 57 -60 71 -18 14 -251 148 -518 298 -564 317
-552 313 -624 238z"/>
</g>
</svg>
